<mxfile host="Electron" modified="2024-03-04T15:58:34.774Z" agent="Mozilla/5.0 (Windows NT 10.0; Win64; x64) AppleWebKit/537.36 (KHTML, like Gecko) draw.io/23.1.5 Chrome/120.0.6099.109 Electron/28.1.0 Safari/537.36" etag="zzLNwR4VZhn7wt2C7vfQ" version="23.1.5" type="device">
  <diagram name="Page-1" id="F2gI1Jt0urPUyaTKEvNq">
    <mxGraphModel dx="1091" dy="638" grid="1" gridSize="10" guides="1" tooltips="1" connect="1" arrows="1" fold="1" page="1" pageScale="1" pageWidth="850" pageHeight="1100" math="0" shadow="0">
      <root>
        <mxCell id="0" />
        <mxCell id="1" parent="0" />
        <mxCell id="1wbso3UQ921A_maDoYZR-22" style="rounded=0;orthogonalLoop=1;jettySize=auto;html=1;exitX=0.5;exitY=1;exitDx=0;exitDy=0;entryX=0.25;entryY=0;entryDx=0;entryDy=0;" edge="1" parent="1" source="1wbso3UQ921A_maDoYZR-1" target="1wbso3UQ921A_maDoYZR-3">
          <mxGeometry relative="1" as="geometry" />
        </mxCell>
        <mxCell id="1wbso3UQ921A_maDoYZR-1" value="&lt;font style=&quot;font-size: 18px;&quot; face=&quot;Verdana&quot;&gt;Order Parts&lt;/font&gt;" style="rounded=1;whiteSpace=wrap;html=1;fillColor=#e3c800;strokeColor=#B09500;fontColor=#000000;" vertex="1" parent="1">
          <mxGeometry x="80" y="40" width="170" height="60" as="geometry" />
        </mxCell>
        <mxCell id="1wbso3UQ921A_maDoYZR-21" style="rounded=0;orthogonalLoop=1;jettySize=auto;html=1;exitX=0.5;exitY=1;exitDx=0;exitDy=0;entryX=0.75;entryY=0;entryDx=0;entryDy=0;" edge="1" parent="1" source="1wbso3UQ921A_maDoYZR-2" target="1wbso3UQ921A_maDoYZR-3">
          <mxGeometry relative="1" as="geometry" />
        </mxCell>
        <mxCell id="1wbso3UQ921A_maDoYZR-2" value="&lt;font style=&quot;font-size: 18px;&quot;&gt;Finalize Software and local testing&lt;/font&gt;" style="rounded=1;whiteSpace=wrap;html=1;fillColor=#e3c800;strokeColor=#B09500;fontColor=#000000;" vertex="1" parent="1">
          <mxGeometry x="310" y="40" width="175" height="60" as="geometry" />
        </mxCell>
        <mxCell id="1wbso3UQ921A_maDoYZR-15" style="edgeStyle=orthogonalEdgeStyle;rounded=0;orthogonalLoop=1;jettySize=auto;html=1;exitX=0.5;exitY=1;exitDx=0;exitDy=0;entryX=0.5;entryY=0;entryDx=0;entryDy=0;" edge="1" parent="1" source="1wbso3UQ921A_maDoYZR-3" target="1wbso3UQ921A_maDoYZR-8">
          <mxGeometry relative="1" as="geometry" />
        </mxCell>
        <mxCell id="1wbso3UQ921A_maDoYZR-3" value="&lt;font style=&quot;font-size: 18px;&quot; face=&quot;Verdana&quot;&gt;Hardware testing and software integration&lt;/font&gt;" style="rounded=1;whiteSpace=wrap;html=1;fillColor=#e51400;fontColor=#ffffff;strokeColor=#B20000;" vertex="1" parent="1">
          <mxGeometry x="160" y="140" width="240" height="60" as="geometry" />
        </mxCell>
        <mxCell id="1wbso3UQ921A_maDoYZR-28" style="edgeStyle=orthogonalEdgeStyle;rounded=0;orthogonalLoop=1;jettySize=auto;html=1;exitX=0.5;exitY=1;exitDx=0;exitDy=0;entryX=0.5;entryY=0;entryDx=0;entryDy=0;" edge="1" parent="1" source="1wbso3UQ921A_maDoYZR-8" target="1wbso3UQ921A_maDoYZR-23">
          <mxGeometry relative="1" as="geometry" />
        </mxCell>
        <mxCell id="1wbso3UQ921A_maDoYZR-8" value="&lt;font style=&quot;font-size: 18px;&quot; face=&quot;Verdana&quot;&gt;Repeated Full System Testing&lt;/font&gt;" style="swimlane;fontStyle=0;childLayout=stackLayout;horizontal=1;startSize=30;horizontalStack=0;resizeParent=1;resizeParentMax=0;resizeLast=0;collapsible=1;marginBottom=0;whiteSpace=wrap;html=1;fillColor=#e51400;fontColor=#ffffff;strokeColor=#B20000;" vertex="1" parent="1">
          <mxGeometry x="125" y="240" width="310" height="150" as="geometry" />
        </mxCell>
        <mxCell id="1wbso3UQ921A_maDoYZR-9" value="&lt;font face=&quot;Verdana&quot;&gt;shorted mockup end-to-end test&lt;/font&gt;" style="text;strokeColor=none;fillColor=none;align=left;verticalAlign=middle;spacingLeft=4;spacingRight=4;overflow=hidden;points=[[0,0.5],[1,0.5]];portConstraint=eastwest;rotatable=0;whiteSpace=wrap;html=1;" vertex="1" parent="1wbso3UQ921A_maDoYZR-8">
          <mxGeometry y="30" width="310" height="30" as="geometry" />
        </mxCell>
        <mxCell id="1wbso3UQ921A_maDoYZR-10" value="&lt;font face=&quot;Verdana&quot;&gt;Repeated redundancy feaure tests&amp;nbsp;&lt;/font&gt;" style="text;strokeColor=none;fillColor=none;align=left;verticalAlign=middle;spacingLeft=4;spacingRight=4;overflow=hidden;points=[[0,0.5],[1,0.5]];portConstraint=eastwest;rotatable=0;whiteSpace=wrap;html=1;" vertex="1" parent="1wbso3UQ921A_maDoYZR-8">
          <mxGeometry y="60" width="310" height="30" as="geometry" />
        </mxCell>
        <mxCell id="1wbso3UQ921A_maDoYZR-13" value="&lt;font face=&quot;Verdana&quot;&gt;hardware precision testing (barometer, servos)&lt;/font&gt;" style="text;strokeColor=none;fillColor=none;align=left;verticalAlign=middle;spacingLeft=4;spacingRight=4;overflow=hidden;points=[[0,0.5],[1,0.5]];portConstraint=eastwest;rotatable=0;whiteSpace=wrap;html=1;" vertex="1" parent="1wbso3UQ921A_maDoYZR-8">
          <mxGeometry y="90" width="310" height="30" as="geometry" />
        </mxCell>
        <mxCell id="1wbso3UQ921A_maDoYZR-14" value="&lt;font face=&quot;Verdana&quot;&gt;full scale mockup end-to-end test&lt;/font&gt;" style="text;strokeColor=none;fillColor=none;align=left;verticalAlign=middle;spacingLeft=4;spacingRight=4;overflow=hidden;points=[[0,0.5],[1,0.5]];portConstraint=eastwest;rotatable=0;whiteSpace=wrap;html=1;" vertex="1" parent="1wbso3UQ921A_maDoYZR-8">
          <mxGeometry y="120" width="310" height="30" as="geometry" />
        </mxCell>
        <mxCell id="1wbso3UQ921A_maDoYZR-33" style="edgeStyle=orthogonalEdgeStyle;rounded=0;orthogonalLoop=1;jettySize=auto;html=1;exitX=0.5;exitY=1;exitDx=0;exitDy=0;entryX=0.5;entryY=0;entryDx=0;entryDy=0;" edge="1" parent="1" source="1wbso3UQ921A_maDoYZR-23" target="1wbso3UQ921A_maDoYZR-29">
          <mxGeometry relative="1" as="geometry" />
        </mxCell>
        <mxCell id="1wbso3UQ921A_maDoYZR-23" value="&lt;font style=&quot;font-size: 18px;&quot; face=&quot;Verdana&quot;&gt;Payload Assembly&lt;/font&gt;" style="rounded=1;whiteSpace=wrap;html=1;fillColor=#e51400;fontColor=#ffffff;strokeColor=#B20000;" vertex="1" parent="1">
          <mxGeometry x="185" y="430" width="190" height="60" as="geometry" />
        </mxCell>
        <mxCell id="1wbso3UQ921A_maDoYZR-34" style="edgeStyle=orthogonalEdgeStyle;rounded=0;orthogonalLoop=1;jettySize=auto;html=1;exitX=0.5;exitY=1;exitDx=0;exitDy=0;entryX=0.5;entryY=0;entryDx=0;entryDy=0;" edge="1" parent="1" source="1wbso3UQ921A_maDoYZR-29" target="1wbso3UQ921A_maDoYZR-30">
          <mxGeometry relative="1" as="geometry" />
        </mxCell>
        <mxCell id="1wbso3UQ921A_maDoYZR-29" value="&lt;font style=&quot;font-size: 18px;&quot; face=&quot;Verdana&quot;&gt;Fully assembled system tests&lt;/font&gt;" style="rounded=1;whiteSpace=wrap;html=1;fillColor=#e51400;fontColor=#ffffff;strokeColor=#B20000;" vertex="1" parent="1">
          <mxGeometry x="590" y="140" width="200" height="60" as="geometry" />
        </mxCell>
        <mxCell id="1wbso3UQ921A_maDoYZR-35" style="edgeStyle=orthogonalEdgeStyle;rounded=0;orthogonalLoop=1;jettySize=auto;html=1;exitX=0.5;exitY=1;exitDx=0;exitDy=0;entryX=0.5;entryY=0;entryDx=0;entryDy=0;" edge="1" parent="1" source="1wbso3UQ921A_maDoYZR-30" target="1wbso3UQ921A_maDoYZR-31">
          <mxGeometry relative="1" as="geometry" />
        </mxCell>
        <mxCell id="1wbso3UQ921A_maDoYZR-30" value="Flight readiness review (?)" style="rounded=1;whiteSpace=wrap;html=1;fillColor=#e51400;fontColor=#ffffff;strokeColor=#B20000;" vertex="1" parent="1">
          <mxGeometry x="630" y="240" width="120" height="60" as="geometry" />
        </mxCell>
        <mxCell id="1wbso3UQ921A_maDoYZR-36" style="edgeStyle=orthogonalEdgeStyle;rounded=0;orthogonalLoop=1;jettySize=auto;html=1;exitX=0.5;exitY=1;exitDx=0;exitDy=0;entryX=0.5;entryY=0;entryDx=0;entryDy=0;" edge="1" parent="1" source="1wbso3UQ921A_maDoYZR-31" target="1wbso3UQ921A_maDoYZR-32">
          <mxGeometry relative="1" as="geometry" />
        </mxCell>
        <mxCell id="1wbso3UQ921A_maDoYZR-31" value="Flight line checkout" style="rounded=1;whiteSpace=wrap;html=1;fillColor=#e51400;fontColor=#ffffff;strokeColor=#B20000;" vertex="1" parent="1">
          <mxGeometry x="630" y="330" width="120" height="60" as="geometry" />
        </mxCell>
        <mxCell id="1wbso3UQ921A_maDoYZR-32" value="&lt;font style=&quot;font-size: 18px;&quot; face=&quot;Verdana&quot;&gt;Flight!&lt;/font&gt;" style="ellipse;whiteSpace=wrap;html=1;fillColor=#60a917;fontColor=#ffffff;strokeColor=#2D7600;" vertex="1" parent="1">
          <mxGeometry x="630" y="420" width="120" height="80" as="geometry" />
        </mxCell>
        <mxCell id="1wbso3UQ921A_maDoYZR-38" style="edgeStyle=orthogonalEdgeStyle;rounded=0;orthogonalLoop=1;jettySize=auto;html=1;exitX=0;exitY=0.5;exitDx=0;exitDy=0;curved=1;" edge="1" parent="1" source="1wbso3UQ921A_maDoYZR-37">
          <mxGeometry relative="1" as="geometry">
            <mxPoint x="490" y="70" as="targetPoint" />
            <Array as="points">
              <mxPoint x="520" y="56" />
              <mxPoint x="520" y="70" />
            </Array>
          </mxGeometry>
        </mxCell>
        <mxCell id="1wbso3UQ921A_maDoYZR-37" value="&lt;font face=&quot;Verdana&quot; style=&quot;font-size: 18px;&quot;&gt;We are (currently) Here!&lt;/font&gt;" style="text;html=1;align=center;verticalAlign=middle;whiteSpace=wrap;rounded=0;rotation=355;" vertex="1" parent="1">
          <mxGeometry x="540" y="30" width="240" height="30" as="geometry" />
        </mxCell>
      </root>
    </mxGraphModel>
  </diagram>
</mxfile>
